<svg xmlns="http://www.w3.org/2000/svg" xmlns:xlink="http://www.w3.org/1999/xlink" width="2000"
    zoomAndPan="magnify" viewBox="0 0 1500 1499.999933" height="2000"
    preserveAspectRatio="xMidYMid meet" version="1.0">
    <rect x="-150" width="1800" fill="#ffffff" y="-149.999993" height="1799.99992" fill-opacity="1" />
    <rect x="-150" width="1800" fill="#ffffff" y="-149.999993" height="1799.99992" fill-opacity="1" />
    <path fill="#000000"
        d="M 400.003906 699.988281 L 1099.996094 699.988281 L 1099.996094 799.996094 L 400.003906 799.996094 Z M 400.003906 699.988281 "
        fill-opacity="1" fill-rule="nonzero" />
    <path fill="#000000"
        d="M 1071.539062 600 C 1099.769531 460.933594 1167.390625 328.320312 1275 220.695312 L 1204.289062 150 C 1107.523438 246.765625 1039.84375 361.425781 999.570312 483.195312 C 1018.214844 383.203125 1047.074219 284.371094 1086.871094 188.175781 L 994.484375 150 C 950.203125 257.128906 919.050781 366.300781 899.519531 475.875 C 908.683594 373.441406 922.859375 271.09375 942.78125 169.140625 L 844.636719 150 C 824.175781 254.773438 809.519531 361.125 799.996094 468.601562 L 799.996094 150 L 700.003906 150 L 700.003906 493.363281 C 689.941406 379.335938 674.113281 264.78125 650.789062 150 L 552.839844 169.921875 C 572.371094 265.816406 587.011719 362.011719 596.96875 458.488281 C 576.855469 352.636719 546.195312 249.164062 505.125 150 L 412.753906 188.28125 C 452.445312 284.085938 481.351562 382.46875 500.054688 482.085938 C 459.765625 360.734375 392.234375 246.539062 295.710938 150 L 225 220.695312 C 332.625 328.320312 400.304688 460.933594 428.503906 600 Z M 1071.539062 600 "
        fill-opacity="1" fill-rule="nonzero" />
    <path fill="#000000"
        d="M 428.503906 900 C 400.246094 1039.050781 332.625 1171.605469 225 1279.273438 L 295.710938 1350 C 392.476562 1253.175781 460.15625 1138.5 500.429688 1016.773438 C 481.785156 1116.796875 452.925781 1215.613281 413.128906 1311.792969 L 505.515625 1350 C 549.796875 1242.914062 580.949219 1133.671875 600.480469 1024.09375 C 591.316406 1126.546875 577.140625 1228.875 557.21875 1330.828125 L 655.363281 1350 C 675.824219 1245.148438 690.480469 1138.710938 700.003906 1031.25 L 700.003906 1350 L 799.996094 1350 L 799.996094 1006.785156 C 810.058594 1120.753906 825.886719 1235.234375 849.210938 1350 L 947.160156 1330.078125 C 927.675781 1234.15625 912.929688 1137.914062 902.96875 1041.449219 C 923.144531 1147.363281 953.761719 1250.773438 994.875 1350 L 1087.246094 1311.703125 C 1047.554688 1215.898438 1018.648438 1117.53125 999.945312 1017.914062 C 1040.234375 1139.203125 1107.765625 1253.460938 1204.289062 1350 L 1275 1279.273438 C 1167.375 1171.664062 1099.753906 1039.050781 1071.496094 900 Z M 428.503906 900 "
        fill-opacity="1" fill-rule="nonzero" />
</svg>
